<svg id="svg" version="1.1" xmlns="http://www.w3.org/2000/svg" xmlns:xlink="http://www.w3.org/1999/xlink" width="400" height="400" viewBox="0, 0, 400,400"><g id="svgg"><path id="path0" d="M85.462 135.110 C 61.467 138.851,43.415 155.013,41.578 174.400 C 40.945 181.086,41.478 181.893,43.524 177.349 C 50.000 162.964,67.468 149.254,82.679 146.617 C 84.117 146.368,87.278 145.398,89.702 144.463 C 100.841 140.164,113.421 139.735,122.321 143.351 C 125.417 144.609,125.674 144.397,123.273 142.564 C 115.090 136.315,98.591 133.063,85.462 135.110 M102.546 136.564 C 103.838 136.912,104.969 137.123,105.059 137.033 C 105.148 136.943,105.420 137.034,105.662 137.235 C 105.904 137.436,107.068 137.642,108.247 137.692 C 109.427 137.742,110.922 137.992,111.569 138.246 C 112.216 138.500,113.098 138.840,113.529 139.001 C 115.934 139.900,111.505 139.945,106.117 139.076 C 105.707 139.010,104.694 139.189,103.867 139.474 C 103.040 139.760,101.169 140.084,99.711 140.195 C 95.294 140.532,93.996 140.817,92.222 141.838 C 89.395 143.466,85.076 145.098,83.574 145.106 C 81.278 145.119,75.233 146.840,73.382 148.008 C 72.440 148.603,70.059 149.850,68.090 150.780 C 63.407 152.991,60.306 155.293,52.573 162.299 C 51.615 163.166,50.724 163.809,50.591 163.727 C 50.343 163.574,46.275 169.514,46.275 170.029 C 46.275 170.188,45.874 170.864,45.384 171.532 C 44.895 172.199,44.247 173.230,43.946 173.823 C 43.258 175.175,42.955 174.903,43.060 173.025 C 43.213 170.290,44.045 167.648,45.945 163.874 C 46.989 161.799,47.843 159.880,47.843 159.609 C 47.843 158.820,51.573 154.008,53.647 152.121 C 61.273 145.180,64.770 142.698,68.017 141.919 C 69.097 141.660,70.218 141.211,70.508 140.921 C 70.798 140.631,71.508 140.282,72.086 140.146 C 72.664 140.010,73.699 139.562,74.386 139.149 C 76.210 138.054,82.831 136.478,85.835 136.424 C 87.263 136.399,88.961 136.246,89.608 136.085 C 91.653 135.576,100.024 135.886,102.546 136.564 M116.471 144.314 L 114.314 144.578 116.765 144.642 C 118.180 144.679,119.216 144.540,119.216 144.314 C 119.216 144.098,119.083 143.950,118.922 143.985 C 118.760 144.021,117.657 144.168,116.471 144.314 M117.161 146.552 C 117.649 146.646,118.355 146.642,118.730 146.544 C 119.105 146.446,118.706 146.369,117.843 146.373 C 116.980 146.378,116.674 146.458,117.161 146.552 M122.549 147.216 C 128.789 148.677,133.483 151.493,138.481 156.777 C 141.260 159.716,141.458 159.865,139.888 157.843 C 135.582 152.297,127.766 147.437,122.244 146.874 L 120.196 146.665 122.549 147.216 M108.039 147.843 C 107.545 148.056,107.472 148.180,107.843 148.180 C 108.167 148.180,108.784 148.029,109.216 147.843 C 109.710 147.631,109.783 147.506,109.412 147.506 C 109.088 147.506,108.471 147.658,108.039 147.843 M104.902 148.998 C 104.039 149.406,103.510 149.742,103.725 149.743 C 104.260 149.747,107.355 148.298,106.863 148.275 C 106.647 148.264,105.765 148.590,104.902 148.998 M98.185 152.392 C 96.873 153.168,95.024 154.495,94.076 155.342 C 92.658 156.608,92.828 156.530,95.031 154.903 C 96.505 153.815,98.402 152.572,99.247 152.141 C 100.093 151.710,100.784 151.272,100.784 151.169 C 100.784 150.866,100.686 150.912,98.185 152.392 M69.838 156.373 C 67.520 158.691,65.226 161.206,64.739 161.961 C 63.937 163.204,63.974 163.186,65.124 161.765 C 65.823 160.902,68.225 158.387,70.462 156.176 C 72.699 153.966,74.422 152.157,74.290 152.157 C 74.159 152.157,72.155 154.054,69.838 156.373 M110.501 154.405 C 111.423 154.488,112.835 154.487,113.638 154.403 C 114.441 154.318,113.686 154.251,111.961 154.252 C 110.235 154.254,109.578 154.322,110.501 154.405 M117.932 154.401 C 118.629 154.487,119.864 154.489,120.678 154.404 C 121.491 154.319,120.922 154.248,119.412 154.246 C 117.902 154.245,117.236 154.314,117.932 154.401 M122.843 154.780 C 123.221 154.879,123.838 154.879,124.216 154.780 C 124.593 154.681,124.284 154.601,123.529 154.601 C 122.775 154.601,122.466 154.681,122.843 154.780 M71.359 157.941 L 69.216 160.196 71.471 158.053 C 73.565 156.061,73.905 155.686,73.614 155.686 C 73.553 155.686,72.538 156.701,71.359 157.941 M100.196 156.078 C 99.702 156.291,99.629 156.415,100.000 156.415 C 100.324 156.415,100.941 156.264,101.373 156.078 C 101.867 155.866,101.939 155.741,101.569 155.741 C 101.245 155.741,100.627 155.893,100.196 156.078 M133.225 157.609 C 135.214 158.437,138.037 159.847,139.499 160.742 C 140.972 161.644,141.633 161.929,140.980 161.382 C 139.538 160.170,135.450 157.995,132.549 156.896 C 128.923 155.522,129.386 156.010,133.225 157.609 M97.451 156.863 C 96.957 157.075,96.884 157.200,97.255 157.200 C 97.578 157.200,98.196 157.048,98.627 156.863 C 99.122 156.650,99.194 156.526,98.824 156.526 C 98.500 156.526,97.882 156.677,97.451 156.863 M90.196 158.627 C 89.244 159.598,88.677 160.392,88.938 160.392 C 89.199 160.392,89.412 160.205,89.412 159.977 C 89.412 159.748,89.632 159.688,89.902 159.844 C 90.172 159.999,90.257 159.977,90.091 159.795 C 89.926 159.612,90.357 158.878,91.050 158.163 C 91.744 157.448,92.225 156.863,92.119 156.863 C 92.014 156.863,91.149 157.657,90.196 158.627 M60.392 159.641 L 58.627 161.240 60.490 159.789 C 62.123 158.516,62.607 158.036,62.255 158.040 C 62.201 158.041,61.363 158.761,60.392 159.641 M55.283 164.216 L 52.745 166.863 55.392 164.325 C 56.848 162.929,58.039 161.738,58.039 161.678 C 58.039 161.389,57.640 161.757,55.283 164.216 M90.191 164.216 C 88.201 166.427,84.883 170.980,85.261 170.980 C 85.366 170.980,86.018 170.142,86.709 169.118 C 87.400 168.093,89.010 166.064,90.287 164.608 C 91.564 163.152,92.521 161.961,92.414 161.961 C 92.307 161.961,91.307 162.975,90.191 164.216 M86.240 164.120 C 81.724 167.167,76.229 173.099,74.165 177.157 C 72.876 179.692,73.434 179.147,75.144 176.202 C 77.174 172.706,82.530 167.129,86.225 164.663 C 89.598 162.412,89.680 162.348,89.183 162.365 C 88.985 162.372,87.661 163.161,86.240 164.120 M139.517 166.951 C 140.222 167.038,141.280 167.036,141.870 166.947 C 142.459 166.857,141.882 166.786,140.588 166.788 C 139.294 166.790,138.812 166.864,139.517 166.951 M271.159 182.745 C 271.159 191.480,271.211 195.054,271.274 190.686 C 271.337 186.319,271.337 179.172,271.274 174.804 C 271.211 170.436,271.159 174.010,271.159 182.745 M173.512 183.137 C 173.512 191.657,173.564 195.142,173.627 190.882 C 173.690 186.623,173.690 179.652,173.627 175.392 C 173.564 171.132,173.512 174.618,173.512 183.137 M294.235 170.196 C 294.235 171.382,294.309 171.868,294.399 171.275 C 294.488 170.681,294.488 169.711,294.399 169.118 C 294.309 168.525,294.235 169.010,294.235 170.196 M296.954 169.412 C 296.954 170.167,297.034 170.475,297.133 170.098 C 297.232 169.721,297.232 169.103,297.133 168.725 C 297.034 168.348,296.954 168.657,296.954 169.412 M111.087 170.196 C 111.087 171.167,111.164 171.564,111.257 171.078 C 111.351 170.593,111.351 169.799,111.257 169.314 C 111.164 168.828,111.087 169.225,111.087 170.196 M298.522 169.804 C 298.522 170.559,298.603 170.868,298.702 170.490 C 298.800 170.113,298.800 169.495,298.702 169.118 C 298.603 168.740,298.522 169.049,298.522 169.804 M143.689 175.686 C 143.689 179.245,143.749 180.701,143.821 178.922 C 143.894 177.142,143.894 174.230,143.821 172.451 C 143.749 170.672,143.689 172.127,143.689 175.686 M154.985 175.588 L 155.067 179.804 155.194 175.803 L 155.321 171.803 157.563 171.662 L 159.804 171.521 157.353 171.447 L 154.902 171.373 154.985 175.588 M180.294 171.649 C 180.779 171.743,181.574 171.743,182.059 171.649 C 182.544 171.556,182.147 171.479,181.176 171.479 C 180.206 171.479,179.809 171.556,180.294 171.649 M100.147 175.882 C 100.148 178.255,100.212 179.175,100.290 177.927 C 100.368 176.679,100.368 174.738,100.289 173.613 C 100.210 172.489,100.146 173.510,100.147 175.882 M266.712 175.392 C 266.657 176.690,261.049 177.137,260.657 175.875 C 260.527 175.457,260.491 175.486,260.534 175.973 C 260.587 176.561,261.062 176.684,263.638 176.781 C 266.842 176.902,267.357 176.628,266.941 175.023 C 266.821 174.559,266.742 174.687,266.712 175.392 M137.924 177.260 C 137.811 177.694,137.860 178.533,138.034 179.123 C 138.300 180.023,138.350 179.896,138.342 178.333 C 138.331 176.295,138.239 176.058,137.924 177.260 M81.051 178.646 C 80.129 180.578,80.259 180.906,81.222 179.081 C 81.660 178.251,81.948 177.504,81.863 177.419 C 81.779 177.334,81.413 177.886,81.051 178.646 M71.818 181.924 C 70.662 184.611,70.803 184.999,71.988 182.390 C 72.517 181.224,72.884 180.204,72.803 180.123 C 72.722 180.042,72.279 180.852,71.818 181.924 M108.753 182.353 C 108.753 183.755,108.824 184.328,108.911 183.627 C 108.998 182.926,108.998 181.779,108.911 181.078 C 108.824 180.377,108.753 180.951,108.753 182.353 M180.496 180.674 C 181.092 180.764,181.974 180.761,182.456 180.668 C 182.939 180.575,182.451 180.501,181.373 180.504 C 180.294 180.507,179.899 180.583,180.496 180.674 M156.765 184.198 C 157.250 184.292,158.044 184.292,158.529 184.198 C 159.015 184.105,158.618 184.028,157.647 184.028 C 156.676 184.028,156.279 184.105,156.765 184.198 M55.385 185.490 C 55.385 186.245,55.466 186.554,55.564 186.176 C 55.663 185.799,55.663 185.181,55.564 184.804 C 55.466 184.426,55.385 184.735,55.385 185.490 M143.692 191.373 C 143.692 195.363,143.750 196.995,143.822 195.000 C 143.893 193.005,143.893 189.740,143.822 187.745 C 143.750 185.750,143.692 187.382,143.692 191.373 M70.420 185.714 C 70.276 186.289,70.234 186.835,70.326 186.927 C 70.418 187.020,70.612 186.625,70.756 186.050 C 70.901 185.476,70.943 184.930,70.850 184.837 C 70.758 184.745,70.564 185.140,70.420 185.714 M100.139 188.039 C 100.138 189.980,100.204 190.824,100.287 189.914 C 100.369 189.004,100.370 187.415,100.289 186.384 C 100.208 185.353,100.140 186.098,100.139 188.039 M55.049 191.961 C 55.050 194.333,55.114 195.253,55.192 194.005 C 55.270 192.757,55.270 190.816,55.191 189.692 C 55.112 188.567,55.048 189.588,55.049 191.961 M266.141 188.109 C 266.391 188.288,266.681 188.963,266.785 189.609 C 266.957 190.686,266.969 190.672,266.918 189.442 C 266.884 188.616,266.637 188.039,266.275 187.942 C 265.877 187.835,265.834 187.889,266.141 188.109 M260.499 189.804 C 260.499 190.775,260.575 191.172,260.669 190.686 C 260.762 190.201,260.762 189.407,260.669 188.922 C 260.575 188.436,260.499 188.833,260.499 189.804 M79.390 189.991 C 77.760 193.893,76.339 202.908,76.330 209.412 C 76.307 225.582,80.463 233.885,91.185 239.088 C 96.955 241.887,99.550 241.856,95.705 239.033 C 85.413 231.479,78.650 212.180,79.861 193.824 C 80.237 188.133,80.221 188.003,79.390 189.991 M208.144 190.872 C 208.849 190.960,209.908 190.958,210.497 190.868 C 211.086 190.779,210.510 190.708,209.216 190.710 C 207.922 190.712,207.439 190.785,208.144 190.872 M229.902 190.876 C 230.926 190.957,232.603 190.957,233.627 190.876 C 234.652 190.796,233.814 190.730,231.765 190.730 C 229.716 190.730,228.877 190.796,229.902 190.876 M279.510 193.624 C 280.858 193.700,283.064 193.700,284.412 193.624 C 285.760 193.547,284.657 193.484,281.961 193.484 C 279.265 193.484,278.162 193.547,279.510 193.624 M68.767 197.059 C 68.765 199.000,68.832 199.844,68.914 198.933 C 68.996 198.023,68.997 196.435,68.916 195.404 C 68.835 194.373,68.768 195.118,68.767 197.059 M111.498 196.078 C 111.498 197.480,111.569 198.054,111.656 197.353 C 111.743 196.652,111.743 195.505,111.656 194.804 C 111.569 194.103,111.498 194.676,111.498 196.078 M46.275 195.432 C 46.275 195.859,50.182 203.529,50.399 203.529 C 50.575 203.529,46.794 195.726,46.426 195.327 C 46.342 195.237,46.275 195.284,46.275 195.432 M55.385 198.431 C 55.385 199.186,55.466 199.495,55.564 199.118 C 55.663 198.740,55.663 198.123,55.564 197.745 C 55.466 197.368,55.385 197.676,55.385 198.431 M132.729 204.267 C 128.912 206.000,128.037 208.778,128.329 218.235 C 128.631 228.009,130.231 230.204,137.081 230.240 C 144.368 230.278,146.431 226.185,145.685 213.170 C 145.344 207.214,144.233 205.271,140.432 203.982 C 138.405 203.294,134.556 203.437,132.729 204.267 M246.863 204.115 C 244.864 204.816,242.953 206.996,242.395 209.209 C 241.739 211.817,241.837 222.577,242.538 224.940 C 244.821 232.625,257.200 232.331,258.814 224.554 C 259.465 221.422,259.220 221.121,256.128 221.258 L 253.529 221.373 253.320 222.941 C 253.015 225.221,252.729 225.490,250.613 225.490 C 247.711 225.490,247.651 225.323,247.623 217.153 C 247.601 210.830,247.674 210.018,248.338 209.174 C 249.833 207.273,253.086 208.284,253.557 210.796 L 253.813 212.157 256.330 212.157 C 259.304 212.157,259.512 211.891,258.816 208.990 C 257.738 204.495,252.206 202.238,246.863 204.115 M51.176 205.098 C 51.511 205.745,51.873 206.275,51.981 206.275 C 52.089 206.275,51.903 205.745,51.569 205.098 C 51.234 204.451,50.872 203.922,50.764 203.922 C 50.656 203.922,50.842 204.451,51.176 205.098 M79.214 207.451 C 80.185 214.099,80.931 217.483,81.814 219.240 C 82.326 220.260,82.745 221.301,82.745 221.553 C 82.745 221.973,83.270 223.369,85.038 227.647 C 85.394 228.510,86.482 230.275,87.455 231.569 C 90.739 235.934,91.092 236.516,90.700 236.907 C 89.743 237.865,85.199 234.212,81.824 229.773 C 79.597 226.844,79.069 225.128,78.224 218.071 C 78.084 216.903,77.809 215.523,77.612 215.006 C 76.754 212.749,77.485 203.210,78.443 204.169 C 78.630 204.356,78.977 205.833,79.214 207.451 M92.398 204.533 C 91.914 205.795,92.127 229.225,92.627 229.725 C 93.124 230.222,104.831 230.425,106.046 229.958 C 106.505 229.782,106.667 229.173,106.667 227.618 L 106.667 225.517 102.451 225.405 L 98.235 225.294 98.121 222.266 C 97.990 218.796,97.857 218.913,102.157 218.728 L 104.510 218.627 104.510 216.667 L 104.510 214.706 101.275 214.592 L 98.039 214.478 98.039 211.599 L 98.039 208.720 100.966 208.445 C 102.576 208.295,104.031 208.253,104.201 208.353 C 105.310 209.007,106.315 207.815,106.198 205.985 L 106.078 204.118 99.359 204.011 C 93.490 203.917,92.609 203.983,92.398 204.533 M108.394 204.467 C 108.136 205.137,108.534 207.179,110.348 214.510 C 111.122 217.637,112.212 222.223,112.770 224.701 C 114.022 230.263,113.968 230.196,117.255 230.196 C 120.435 230.196,120.485 230.146,121.351 226.078 C 121.719 224.353,122.520 220.912,123.133 218.431 C 127.102 202.348,127.018 203.922,123.913 203.922 C 121.835 203.922,121.507 204.027,121.182 204.804 C 120.885 205.515,118.731 215.231,117.793 220.098 C 117.304 222.631,116.711 220.729,114.717 210.232 C 114.168 207.340,113.522 204.737,113.282 204.448 C 112.676 203.718,108.675 203.734,108.394 204.467 M149.650 204.542 C 149.099 205.978,149.391 228.943,149.968 229.520 C 150.390 229.942,151.897 230.094,156.203 230.149 C 162.455 230.228,163.137 230.006,163.137 227.890 C 163.137 225.878,162.491 225.522,158.627 225.403 L 155.098 225.294 155.092 215.098 C 155.089 209.490,154.946 204.681,154.775 204.412 C 154.290 203.648,149.951 203.758,149.650 204.542 M163.345 204.295 C 163.206 204.520,163.650 207.043,164.333 209.901 C 169.796 232.779,168.800 230.196,172.156 230.196 C 175.394 230.196,175.404 230.185,176.488 225.484 C 177.685 220.292,180.200 210.049,180.937 207.364 C 181.792 204.249,181.586 203.922,178.773 203.922 C 175.920 203.922,176.158 203.450,174.312 212.745 C 172.757 220.576,172.571 221.329,172.267 221.025 C 172.045 220.804,170.619 214.263,169.563 208.627 C 169.219 206.794,168.806 205.029,168.644 204.706 C 168.292 204.002,163.744 203.649,163.345 204.295 M184.160 204.542 C 183.551 206.127,183.906 229.714,184.542 229.958 C 185.484 230.319,197.377 230.231,197.965 229.858 C 198.305 229.642,198.438 228.882,198.357 227.609 L 198.235 225.686 194.024 225.575 C 189.174 225.447,189.273 225.539,189.488 221.356 L 189.608 219.020 192.941 218.824 L 196.275 218.627 196.275 216.667 L 196.275 214.706 193.043 214.592 C 189.356 214.462,189.258 214.356,189.485 210.758 L 189.608 208.824 193.643 208.627 C 198.322 208.400,199.327 207.497,198.193 204.542 C 197.835 203.609,184.518 203.609,184.160 204.542 M206.536 204.183 C 206.093 204.626,206.231 228.597,206.680 229.438 C 207.056 230.140,207.556 230.196,213.445 230.190 C 220.859 230.183,220.873 230.178,220.710 227.609 L 220.588 225.686 216.373 225.575 L 212.157 225.464 212.157 222.159 L 212.157 218.855 215.392 218.741 L 218.627 218.627 218.627 216.667 L 218.627 214.706 215.392 214.592 L 212.157 214.478 212.157 211.553 L 212.157 208.627 215.854 208.627 C 220.469 208.627,221.702 207.554,220.546 204.542 C 220.299 203.897,207.159 203.560,206.536 204.183 M222.745 204.567 C 222.745 205.136,226.246 213.154,227.470 215.387 C 228.146 216.620,227.870 217.593,225.269 223.161 C 222.265 229.592,222.240 229.954,224.794 230.119 C 227.358 230.284,227.890 229.874,229.224 226.709 C 231.334 221.703,231.303 221.704,233.378 226.667 C 234.805 230.082,234.918 230.184,237.255 230.184 C 239.593 230.184,240.178 229.782,239.834 228.413 C 239.580 227.399,236.121 219.444,235.283 217.946 C 234.640 216.798,234.817 216.198,237.451 210.559 C 240.660 203.690,240.660 203.688,236.479 203.994 C 234.604 204.131,234.670 204.054,232.896 208.137 C 231.349 211.695,231.348 211.694,229.691 207.549 L 228.319 204.118 225.532 204.002 C 223.106 203.902,222.745 203.975,222.745 204.567 M262.363 204.498 C 261.937 205.010,262.074 229.263,262.505 229.694 C 262.761 229.950,274.987 230.222,275.725 229.988 C 276.398 229.774,276.493 229.451,276.392 227.713 L 276.275 225.686 272.059 225.575 L 267.843 225.464 267.843 222.159 L 267.843 218.855 271.063 218.741 L 274.284 218.627 274.527 217.431 C 275.002 215.098,274.572 214.727,271.139 214.510 L 268.039 214.314 267.924 211.471 L 267.809 208.627 271.669 208.627 C 276.337 208.627,277.426 207.652,276.233 204.542 C 275.891 203.651,263.100 203.610,262.363 204.498 M279.869 204.183 C 279.465 204.588,279.557 229.334,279.964 229.586 C 280.577 229.964,291.935 230.268,292.429 229.919 C 292.687 229.737,292.932 228.975,292.974 228.226 C 293.134 225.348,293.340 225.490,289.020 225.490 L 285.098 225.490 285.098 215.326 C 285.098 209.736,284.991 204.883,284.860 204.542 C 284.615 203.905,280.447 203.605,279.869 204.183 M140.189 205.096 C 143.518 206.194,144.355 208.346,144.573 216.355 C 144.807 224.964,144.305 226.339,140.120 228.566 C 138.892 229.220,133.700 228.929,132.580 228.144 C 129.853 226.234,129.725 225.536,129.713 212.549 C 129.707 206.113,134.005 203.055,140.189 205.096 M102.059 205.315 C 103.914 205.481,104.706 205.712,104.706 206.087 C 104.706 206.890,104.345 206.993,101.163 207.092 C 96.982 207.223,96.863 207.343,96.863 211.419 C 96.863 215.166,97.241 215.881,99.131 215.707 C 103.088 215.341,103.725 215.447,103.725 216.471 C 103.725 217.421,103.634 217.454,100.721 217.565 C 96.886 217.710,96.744 217.882,96.830 222.255 C 96.915 226.582,96.548 226.298,102.869 226.915 C 106.290 227.249,105.755 228.139,101.941 228.458 C 100.550 228.574,98.353 228.817,97.059 228.996 C 93.379 229.507,93.607 230.227,93.516 217.791 C 93.417 204.238,93.297 204.565,98.235 204.978 C 98.882 205.032,100.603 205.184,102.059 205.315 M255.315 205.658 C 256.150 206.000,257.201 207.870,257.453 209.463 C 257.794 211.614,255.668 211.556,254.446 209.382 C 253.508 207.712,252.726 207.350,249.932 207.291 C 246.768 207.223,246.587 207.709,246.480 216.529 C 246.377 224.995,246.503 225.575,248.648 226.433 C 251.816 227.701,254.487 226.231,254.504 223.212 C 254.515 221.420,257.436 222.168,257.509 223.982 C 257.744 229.781,248.266 231.220,244.538 225.950 L 243.390 224.327 243.438 216.896 C 243.490 208.811,243.929 207.151,246.367 205.825 C 248.136 204.863,253.144 204.769,255.315 205.658 M167.772 205.600 C 168.001 205.876,168.180 206.803,168.169 207.659 C 168.148 209.270,168.865 212.450,169.404 213.137 C 169.573 213.353,169.825 214.235,169.964 215.098 C 170.622 219.177,170.920 220.686,171.301 221.870 C 171.528 222.575,171.692 223.193,171.665 223.243 C 171.638 223.292,171.809 223.678,172.044 224.099 C 172.536 224.977,173.725 222.749,173.725 220.951 C 173.725 220.448,173.888 219.632,174.086 219.136 C 174.905 217.087,175.027 216.570,175.176 214.510 C 175.262 213.324,175.609 211.647,175.947 210.784 C 176.286 209.922,176.674 208.333,176.811 207.255 C 177.055 205.323,177.079 205.294,178.431 205.294 C 180.186 205.294,180.408 206.335,179.236 209.060 C 178.780 210.120,178.332 211.735,178.240 212.650 C 178.148 213.565,177.784 215.108,177.430 216.078 C 176.764 217.905,176.719 218.110,176.271 221.367 C 176.123 222.443,175.780 223.767,175.508 224.309 C 175.235 224.851,174.906 225.986,174.775 226.831 C 174.498 228.622,174.034 229.008,172.157 229.008 C 170.067 229.008,169.620 228.485,169.177 225.524 C 169.061 224.751,168.639 222.971,168.239 221.569 C 167.392 218.597,166.805 215.616,166.442 212.446 C 166.299 211.203,166.032 210.092,165.847 209.978 C 165.313 209.648,164.641 206.704,164.908 205.863 C 165.190 204.973,167.106 204.798,167.772 205.600 M193.215 205.569 C 196.197 206.000,198.021 206.832,195.286 206.513 C 194.635 206.438,194.006 206.529,193.890 206.717 C 193.774 206.905,193.028 207.059,192.232 207.059 C 191.436 207.060,190.170 207.369,189.420 207.746 L 188.055 208.431 188.105 211.434 C 188.172 215.442,188.304 215.619,191.290 215.727 C 194.010 215.825,195.538 216.548,194.510 217.250 C 194.159 217.489,192.876 217.553,191.334 217.408 C 188.144 217.109,188.064 217.231,188.214 222.150 C 188.339 226.244,188.943 227.482,190.588 227.020 C 192.636 226.445,196.471 226.729,196.471 227.455 C 196.471 228.099,194.926 228.346,190.196 228.460 L 185.294 228.577 185.388 218.504 C 185.439 212.964,185.481 207.826,185.480 207.085 C 185.479 204.932,186.892 204.655,193.215 205.569 M218.253 205.650 C 219.357 206.458,217.952 207.013,214.502 207.132 C 210.692 207.263,210.510 207.480,210.831 211.505 C 211.151 215.522,211.287 215.689,214.168 215.609 C 216.626 215.542,217.522 215.993,217.103 217.086 C 216.888 217.647,216.472 217.721,214.532 217.545 C 210.961 217.221,210.699 217.548,210.807 222.182 C 210.913 226.730,210.834 226.653,215.404 226.661 C 218.143 226.665,218.896 226.791,219.080 227.272 C 219.414 228.141,219.323 228.175,215.668 228.515 C 207.815 229.246,207.022 228.806,207.748 224.118 C 207.915 223.039,207.909 220.569,207.735 218.627 C 207.550 216.560,207.574 214.194,207.795 212.915 C 208.041 211.486,208.034 210.090,207.774 208.872 C 207.005 205.268,207.119 205.182,212.689 205.154 C 216.136 205.137,217.746 205.280,218.253 205.650 M227.881 206.176 C 228.968 209.014,231.122 212.961,231.518 212.840 C 231.761 212.766,232.314 211.988,232.745 211.111 C 233.176 210.234,233.727 209.272,233.969 208.974 C 234.210 208.676,234.624 207.760,234.888 206.939 C 235.341 205.534,235.452 205.454,236.802 205.567 C 238.532 205.711,238.538 206.245,236.841 208.921 C 236.206 209.923,235.686 210.984,235.686 211.281 C 235.686 211.577,235.140 212.614,234.471 213.585 C 233.177 215.466,233.105 217.428,234.293 218.415 C 234.594 218.664,234.956 219.520,235.096 220.317 C 235.237 221.113,235.686 222.382,236.094 223.137 C 238.702 227.962,238.805 228.632,236.938 228.621 C 235.464 228.613,235.044 228.245,234.708 226.667 C 234.414 225.289,233.565 223.386,232.886 222.586 C 232.686 222.350,232.252 221.804,231.923 221.373 C 231.489 220.805,231.265 220.728,231.114 221.093 C 230.999 221.370,230.479 222.104,229.958 222.724 C 229.436 223.343,228.743 224.607,228.416 225.533 C 227.632 227.756,226.789 228.627,225.422 228.627 C 224.059 228.627,224.164 227.577,225.811 224.706 C 229.918 217.549,229.920 217.114,225.867 209.341 C 224.234 206.209,224.291 205.098,226.087 205.098 C 227.232 205.098,227.538 205.282,227.881 206.176 M275.060 205.727 C 275.590 207.110,274.536 207.553,271.189 207.357 C 266.457 207.079,266.266 207.238,266.456 211.285 C 266.542 213.116,266.757 214.736,266.934 214.885 C 267.377 215.261,270.160 216.048,271.483 216.172 C 273.534 216.364,272.568 217.059,269.976 217.255 C 266.258 217.537,266.043 217.911,266.215 223.810 C 266.292 226.462,266.880 226.789,271.406 226.698 C 274.848 226.628,275.497 226.858,275.061 227.995 C 274.860 228.518,273.979 228.602,269.189 228.555 L 263.554 228.499 263.511 224.544 C 263.357 210.529,263.453 205.780,263.897 205.506 C 264.889 204.893,274.815 205.090,275.060 205.727 M56.918 205.882 C 56.918 206.206,57.070 206.824,57.255 207.255 C 57.467 207.749,57.592 207.822,57.592 207.451 C 57.592 207.127,57.440 206.510,57.255 206.078 C 57.042 205.584,56.918 205.512,56.918 205.882 M112.694 206.569 C 113.000 207.162,113.381 208.862,113.540 210.347 C 113.698 211.832,114.161 214.303,114.567 215.837 C 114.973 217.372,115.408 219.157,115.533 219.804 C 115.658 220.451,115.904 221.157,116.080 221.373 C 116.256 221.588,116.524 222.426,116.675 223.235 C 116.999 224.970,117.526 225.138,117.898 223.627 C 118.044 223.034,118.388 222.196,118.664 221.765 C 118.939 221.333,119.280 219.833,119.422 218.431 C 119.774 214.953,119.844 214.570,120.497 212.549 C 120.810 211.578,121.384 209.681,121.772 208.333 C 122.160 206.985,122.611 205.882,122.775 205.882 C 122.939 205.882,123.336 205.781,123.658 205.658 C 124.639 205.282,124.750 206.715,123.966 209.619 C 123.560 211.123,123.119 213.235,122.986 214.314 C 122.853 215.393,122.388 217.212,121.953 218.357 C 121.373 219.885,119.622 227.483,119.609 228.529 C 119.608 228.583,118.570 228.627,117.302 228.627 C 114.504 228.627,113.914 227.351,112.772 218.824 C 112.615 217.648,112.131 215.578,111.490 213.333 C 111.398 213.010,111.337 212.699,111.355 212.643 C 111.373 212.587,111.145 212.057,110.847 211.466 C 110.235 210.253,109.676 206.141,110.069 205.748 C 110.724 205.093,112.164 205.543,112.694 206.569 M153.455 206.060 C 153.786 206.391,153.975 207.172,153.906 207.923 C 153.645 210.783,153.603 226.151,153.856 226.560 C 154.009 226.808,154.764 226.930,155.593 226.840 C 160.466 226.310,162.648 226.738,161.588 228.016 C 160.951 228.783,152.060 228.869,151.438 228.115 C 150.736 227.263,150.682 207.565,151.378 206.265 C 151.868 205.348,152.665 205.270,153.455 206.060 M283.702 211.773 C 283.857 215.229,283.860 219.799,283.709 221.930 C 283.379 226.584,283.454 226.667,288.026 226.667 C 290.884 226.667,292.115 227.232,291.216 228.130 C 290.841 228.505,282.136 228.586,281.544 228.220 C 280.736 227.721,280.689 227.033,280.726 216.354 C 280.765 205.303,280.737 205.490,282.322 205.490 L 283.420 205.490 283.702 211.773 M74.257 209.216 C 74.256 211.157,74.322 212.000,74.404 211.090 C 74.486 210.180,74.487 208.592,74.406 207.561 C 74.325 206.530,74.258 207.275,74.257 209.216 M134.176 207.589 C 132.569 208.726,132.533 208.964,132.732 217.150 C 132.941 225.738,133.819 227.520,137.541 226.910 C 138.138 226.811,138.933 226.717,139.306 226.699 C 140.462 226.644,141.418 224.034,141.185 221.569 C 141.072 220.382,141.102 218.618,141.251 217.647 C 142.480 209.635,138.760 204.346,134.176 207.589 M139.216 209.020 C 140.216 210.020,140.431 223.574,139.467 224.892 C 138.727 225.905,135.402 225.920,134.666 224.914 C 133.360 223.127,133.361 210.502,134.669 209.060 C 135.667 207.958,138.132 207.936,139.216 209.020 M53.988 209.810 C 54.372 210.460,55.096 211.475,55.598 212.065 C 56.099 212.655,55.858 212.123,55.062 210.882 C 53.553 208.532,52.772 207.752,53.988 209.810 M57.255 214.510 C 57.716 215.157,58.181 215.686,58.289 215.686 C 58.397 215.686,58.108 215.157,57.647 214.510 C 57.186 213.863,56.721 213.333,56.613 213.333 C 56.505 213.333,56.794 213.863,57.255 214.510 M59.116 217.059 C 60.842 219.574,65.158 224.323,65.517 224.101 C 65.725 223.973,65.792 223.700,65.666 223.496 C 65.539 223.292,65.288 223.216,65.106 223.328 C 64.925 223.441,63.582 222.076,62.123 220.296 C 59.059 216.558,57.963 215.378,59.116 217.059 M62.157 218.431 C 62.491 219.078,62.853 219.608,62.961 219.608 C 63.069 219.608,62.884 219.078,62.549 218.431 C 62.214 217.784,61.852 217.255,61.745 217.255 C 61.637 217.255,61.822 217.784,62.157 218.431 M74.804 219.813 C 74.700 220.358,74.731 220.875,74.873 220.963 C 75.015 221.050,75.171 220.605,75.219 219.973 C 75.326 218.564,75.063 218.462,74.804 219.813 " stroke="none" fill="#d58a39" fill-rule="evenodd"></path><path id="path1" d="M106.765 143.031 C 107.574 143.115,108.897 143.115,109.706 143.031 C 110.515 142.946,109.853 142.877,108.235 142.877 C 106.618 142.877,105.956 142.946,106.765 143.031 M116.275 143.922 C 116.706 144.107,117.412 144.259,117.843 144.259 L 118.627 144.259 117.843 143.922 C 117.412 143.736,116.706 143.585,116.275 143.585 L 115.490 143.585 116.275 143.922 M111.961 147.222 C 104.798 148.624,97.174 152.583,91.569 157.812 L 89.216 160.007 91.569 158.998 C 108.344 151.804,128.621 152.614,140.392 160.948 C 143.236 162.961,143.322 162.961,141.958 160.943 C 134.941 150.566,122.936 145.075,111.961 147.222 M94.706 151.995 L 93.529 153.006 94.804 152.163 C 95.505 151.699,96.078 151.243,96.078 151.150 C 96.078 150.856,95.912 150.959,94.706 151.995 M69.191 156.569 L 68.039 157.843 69.314 156.691 C 70.015 156.058,70.588 155.484,70.588 155.417 C 70.588 155.114,70.265 155.381,69.191 156.569 M86.456 158.922 L 84.510 160.980 86.569 159.034 C 87.701 157.964,88.627 157.038,88.627 156.976 C 88.627 156.683,88.264 157.008,86.456 158.922 M69.391 160.294 L 68.039 161.765 69.510 160.413 C 70.879 159.155,71.161 158.824,70.861 158.824 C 70.796 158.824,70.134 159.485,69.391 160.294 M89.725 162.494 C 70.861 173.245,64.026 195.192,72.903 216.514 C 74.659 220.732,75.294 221.524,74.895 219.000 C 71.985 200.557,78.905 176.423,90.770 163.627 C 93.846 160.310,93.747 160.203,89.725 162.494 M255.790 166.556 C 256.386 166.646,257.268 166.644,257.750 166.551 C 258.233 166.457,257.745 166.384,256.667 166.387 C 255.588 166.390,255.194 166.466,255.790 166.556 M94.379 166.928 C 94.235 167.072,94.118 174.219,94.118 182.810 L 94.118 198.431 102.843 198.341 L 111.569 198.251 103.039 198.138 L 94.510 198.024 94.510 182.567 L 94.510 167.111 95.588 166.948 L 96.667 166.784 95.654 166.725 C 95.096 166.693,94.523 166.784,94.379 166.928 M97.554 166.944 C 98.041 167.038,98.747 167.034,99.122 166.936 C 99.497 166.838,99.098 166.761,98.235 166.766 C 97.373 166.770,97.066 166.850,97.554 166.944 M102.434 166.957 C 103.880 167.032,106.351 167.033,107.924 166.958 C 109.497 166.884,108.314 166.822,105.294 166.821 C 102.275 166.821,100.987 166.882,102.434 166.957 M116.745 166.915 C 116.594 167.066,116.471 174.219,116.471 182.810 L 116.471 198.431 119.204 198.431 L 121.938 198.431 122.048 186.569 C 122.108 180.044,122.030 174.441,121.875 174.118 C 121.719 173.794,121.587 179.044,121.581 185.784 L 121.569 198.039 119.216 198.039 L 116.863 198.039 116.863 182.549 L 116.863 167.059 120.556 167.059 C 122.686 167.059,124.333 167.229,124.448 167.461 C 124.557 167.682,124.602 167.638,124.547 167.363 C 124.437 166.817,117.255 166.405,116.745 166.915 M149.199 167.158 C 149.095 167.428,149.058 174.355,149.118 182.550 L 149.225 197.451 149.319 182.266 L 149.412 167.081 154.804 166.960 L 160.196 166.839 154.792 166.753 C 150.757 166.688,149.339 166.791,149.199 167.158 M176.159 166.957 C 177.606 167.032,180.076 167.033,181.650 166.958 C 183.223 166.884,182.039 166.822,179.020 166.821 C 176.000 166.821,174.713 166.882,176.159 166.957 M206.190 166.956 C 207.329 167.036,209.094 167.035,210.111 166.954 C 211.128 166.874,210.196 166.809,208.039 166.810 C 205.882 166.811,205.050 166.877,206.190 166.956 M228.883 166.961 C 228.782 167.123,229.875 167.206,231.311 167.147 C 235.860 166.958,236.394 166.794,232.670 166.729 C 230.688 166.695,228.984 166.799,228.883 166.961 M279.608 166.957 L 287.843 167.074 287.843 169.223 L 287.843 171.373 282.353 171.373 L 276.863 171.373 276.863 175.663 C 276.863 178.023,276.995 180.036,277.157 180.137 C 277.319 180.237,277.396 178.400,277.329 176.053 L 277.206 171.787 282.623 171.678 L 288.039 171.569 288.039 169.216 L 288.039 166.863 279.706 166.851 L 271.372 166.839 279.608 166.957 M289.673 166.928 C 289.529 167.072,289.414 167.381,289.418 167.614 C 289.422 167.885,289.531 167.871,289.719 167.574 C 289.882 167.318,290.894 167.041,291.968 166.959 L 293.922 166.808 291.928 166.737 C 290.832 166.698,289.817 166.784,289.673 166.928 M290.977 170.704 L 291.169 173.922 291.289 171.018 C 291.355 169.422,291.269 167.974,291.097 167.801 C 290.925 167.628,290.871 168.934,290.977 170.704 M298.165 170.196 C 298.165 171.598,298.236 172.172,298.323 171.471 C 298.410 170.770,298.410 169.623,298.323 168.922 C 298.236 168.221,298.165 168.794,298.165 170.196 M292.289 170.980 C 292.289 172.598,292.358 173.260,292.443 172.451 C 292.527 171.642,292.527 170.319,292.443 169.510 C 292.358 168.701,292.289 169.363,292.289 170.980 M295.368 170.306 C 295.292 172.636,295.957 173.612,296.946 172.623 C 297.247 172.321,297.134 172.262,296.548 172.415 C 295.796 172.612,295.716 172.440,295.585 170.334 L 295.442 168.039 295.368 170.306 M70.588 171.961 C 68.981 173.578,67.755 174.902,67.863 174.902 C 67.971 174.902,69.374 173.578,70.980 171.961 C 72.587 170.343,73.814 169.020,73.706 169.020 C 73.598 169.020,72.195 170.343,70.588 171.961 M72.519 173.645 C 70.865 175.369,70.682 175.629,71.984 174.401 C 73.075 173.372,74.061 172.624,74.176 172.738 C 74.290 172.852,74.688 172.609,75.061 172.198 C 76.969 170.089,74.678 171.393,72.519 173.645 M255.980 171.257 C 256.466 171.351,257.260 171.351,257.745 171.257 C 258.230 171.164,257.833 171.087,256.863 171.087 C 255.892 171.087,255.495 171.164,255.980 171.257 M102.647 171.664 C 104.211 171.738,106.770 171.738,108.333 171.664 C 109.897 171.589,108.618 171.528,105.490 171.528 C 102.363 171.528,101.083 171.589,102.647 171.664 M179.367 176.078 C 179.367 178.775,179.429 179.877,179.506 178.529 C 179.583 177.181,179.583 174.975,179.506 173.627 C 179.429 172.279,179.367 173.382,179.367 176.078 M231.961 172.549 C 231.814 173.013,231.781 173.481,231.889 173.589 C 231.997 173.696,232.206 173.405,232.353 172.941 C 232.500 172.477,232.532 172.010,232.425 171.902 C 232.317 171.794,232.108 172.085,231.961 172.549 M207.451 172.722 C 207.451 173.033,207.627 173.396,207.843 173.529 C 208.059 173.663,208.235 173.408,208.235 172.964 C 208.235 172.520,208.059 172.157,207.843 172.157 C 207.627 172.157,207.451 172.411,207.451 172.722 M167.576 174.902 C 167.576 176.304,167.648 176.877,167.735 176.176 C 167.822 175.475,167.822 174.328,167.735 173.627 C 167.648 172.926,167.576 173.500,167.576 174.902 M192.289 175.294 C 192.289 176.912,192.358 177.574,192.443 176.765 C 192.527 175.956,192.527 174.632,192.443 173.824 C 192.358 173.015,192.289 173.676,192.289 175.294 M252.716 182.549 C 252.716 187.294,252.773 189.181,252.842 186.743 C 252.911 184.305,252.911 180.422,252.841 178.116 C 252.772 175.809,252.716 177.804,252.716 182.549 M246.832 182.745 C 246.832 187.167,246.889 188.975,246.959 186.765 C 247.029 184.554,247.029 180.936,246.959 178.725 C 246.889 176.515,246.832 178.324,246.832 182.745 M70.961 178.077 C 70.510 178.961,70.209 179.751,70.291 179.833 C 70.373 179.916,70.824 179.193,71.293 178.227 C 72.362 176.027,72.073 175.897,70.961 178.077 M155.972 179.891 C 156.668 179.978,157.903 179.979,158.717 179.894 C 159.530 179.809,158.961 179.738,157.451 179.737 C 155.941 179.735,155.275 179.804,155.972 179.891 M101.667 180.288 C 102.691 180.369,104.368 180.369,105.392 180.288 C 106.417 180.207,105.578 180.141,103.529 180.141 C 101.480 180.141,100.642 180.207,101.667 180.288 M138.130 189.118 L 138.039 198.431 140.882 198.355 L 143.725 198.278 141.086 198.141 L 138.446 198.004 138.333 188.904 L 138.220 179.804 138.130 189.118 M281.870 180.284 C 282.575 180.371,283.633 180.370,284.223 180.280 C 284.812 180.191,284.235 180.119,282.941 180.122 C 281.647 180.124,281.165 180.197,281.870 180.284 M285.490 182.157 L 285.490 184.314 281.176 184.314 L 276.863 184.314 276.947 189.118 L 277.031 193.922 277.156 189.314 L 277.280 184.706 281.581 184.706 L 285.882 184.706 285.882 182.353 C 285.882 181.059,285.794 180.000,285.686 180.000 C 285.578 180.000,285.490 180.971,285.490 182.157 M102.059 184.604 C 103.299 184.681,105.328 184.681,106.569 184.604 C 107.809 184.526,106.794 184.462,104.314 184.462 C 101.833 184.462,100.819 184.526,102.059 184.604 M179.216 191.355 L 179.216 198.005 176.373 198.140 L 173.529 198.276 176.569 198.353 L 179.608 198.431 179.608 191.786 L 179.608 185.141 181.471 184.994 L 183.333 184.847 181.275 184.777 L 179.216 184.706 179.216 191.355 M154.986 189.510 L 154.902 194.118 157.549 194.042 L 160.196 193.967 157.758 193.828 L 155.319 193.689 155.195 189.295 L 155.070 184.902 154.986 189.510 M204.712 185.588 C 204.707 186.190,205.081 186.265,207.745 186.198 L 210.784 186.121 208.050 185.982 C 206.497 185.903,205.187 185.639,205.017 185.372 C 204.814 185.053,204.716 185.123,204.712 185.588 M229.020 185.980 C 229.020 186.142,230.431 186.275,232.157 186.275 C 233.882 186.275,235.294 186.142,235.294 185.980 C 235.294 185.819,233.882 185.686,232.157 185.686 C 230.431 185.686,229.020 185.819,229.020 185.980 M162.474 189.216 C 162.477 190.510,162.550 190.992,162.637 190.287 C 162.724 189.582,162.723 188.523,162.633 187.934 C 162.544 187.345,162.472 187.922,162.474 189.216 M168.357 189.608 C 168.359 190.902,168.432 191.384,168.520 190.679 C 168.607 189.974,168.605 188.916,168.516 188.326 C 168.426 187.737,168.355 188.314,168.357 189.608 M57.286 191.471 C 57.269 192.711,57.410 193.725,57.599 193.725 C 57.788 193.725,57.862 192.887,57.763 191.863 C 57.493 189.084,57.321 188.942,57.286 191.471 M191.856 191.765 C 191.856 192.520,191.936 192.828,192.035 192.451 C 192.134 192.074,192.134 191.456,192.035 191.078 C 191.936 190.701,191.856 191.010,191.856 191.765 M161.289 192.823 C 160.811 193.320,160.563 193.725,160.738 193.725 C 161.120 193.725,162.547 192.201,162.318 192.037 C 162.229 191.973,161.766 192.327,161.289 192.823 M66.423 197.647 C 66.423 200.127,66.486 201.142,66.564 199.902 C 66.642 198.662,66.642 196.632,66.564 195.392 C 66.486 194.152,66.423 195.167,66.423 197.647 M108.137 194.002 C 108.623 194.096,109.417 194.096,109.902 194.002 C 110.387 193.909,109.990 193.832,109.020 193.832 C 108.049 193.832,107.652 193.909,108.137 194.002 M287.934 195.686 C 287.934 196.441,288.015 196.750,288.113 196.373 C 288.212 195.995,288.212 195.377,288.113 195.000 C 288.015 194.623,287.934 194.931,287.934 195.686 M248.235 195.025 C 248.235 195.092,248.809 195.666,249.510 196.299 L 250.784 197.451 249.633 196.176 C 248.559 194.988,248.235 194.722,248.235 195.025 M264.093 196.176 L 262.941 197.451 264.216 196.299 C 264.917 195.666,265.490 195.092,265.490 195.025 C 265.490 194.722,265.167 194.988,264.093 196.176 M237.380 197.451 C 237.451 198.150,237.757 198.238,240.200 198.261 L 242.941 198.287 240.320 198.146 C 238.265 198.036,237.655 197.861,237.499 197.336 C 237.352 196.842,237.321 196.872,237.380 197.451 M127.942 197.647 C 128.117 198.296,131.632 198.721,132.193 198.161 C 132.368 197.986,131.615 197.906,130.520 197.982 C 129.157 198.078,128.411 197.954,128.156 197.590 C 127.855 197.161,127.814 197.172,127.942 197.647 M201.961 197.614 C 201.961 197.971,201.226 198.068,199.252 197.973 C 197.762 197.902,196.625 197.975,196.726 198.137 C 197.010 198.594,201.882 198.483,202.173 198.013 C 202.315 197.783,202.326 197.489,202.196 197.360 C 202.067 197.230,201.961 197.345,201.961 197.614 M150.686 198.325 C 151.495 198.409,152.819 198.409,153.627 198.325 C 154.436 198.240,153.775 198.171,152.157 198.171 C 150.539 198.171,149.877 198.240,150.686 198.325 M156.765 198.326 C 157.681 198.409,159.181 198.409,160.098 198.326 C 161.015 198.244,160.265 198.176,158.431 198.176 C 156.598 198.176,155.848 198.244,156.765 198.326 M189.118 198.325 C 189.926 198.409,191.250 198.409,192.059 198.325 C 192.868 198.240,192.206 198.171,190.588 198.171 C 188.971 198.171,188.309 198.240,189.118 198.325 M214.422 198.327 C 215.344 198.410,216.756 198.409,217.559 198.324 C 218.363 198.240,217.608 198.172,215.882 198.174 C 214.157 198.175,213.500 198.244,214.422 198.327 M222.451 198.325 C 223.260 198.409,224.583 198.409,225.392 198.325 C 226.201 198.240,225.539 198.171,223.922 198.171 C 222.304 198.171,221.642 198.240,222.451 198.325 M275.370 198.332 C 277.677 198.401,281.559 198.401,283.998 198.332 C 286.436 198.263,284.549 198.207,279.804 198.206 C 275.059 198.206,273.064 198.262,275.370 198.332 M58.915 200.784 C 58.915 201.539,58.995 201.848,59.094 201.471 C 59.192 201.093,59.192 200.475,59.094 200.098 C 58.995 199.721,58.915 200.029,58.915 200.784 M62.353 213.480 C 62.353 213.903,63.911 216.863,64.134 216.863 C 64.241 216.863,63.951 216.113,63.489 215.196 C 62.580 213.393,62.353 213.050,62.353 213.480 M71.765 220.150 C 71.765 220.571,72.932 222.745,73.157 222.745 C 73.265 222.745,73.062 222.172,72.705 221.471 C 71.977 220.039,71.765 219.741,71.765 220.150 M64.578 223.301 C 66.610 225.601,66.814 225.784,66.355 224.902 C 66.130 224.471,65.535 223.680,65.032 223.145 C 64.529 222.610,64.152 222.066,64.194 221.936 C 64.236 221.806,64.021 221.699,63.717 221.699 C 63.382 221.699,63.721 222.330,64.578 223.301 M73.333 229.216 C 74.505 230.402,75.552 231.373,75.659 231.373 C 75.767 231.373,74.897 230.402,73.725 229.216 C 72.554 228.029,71.507 227.059,71.399 227.059 C 71.291 227.059,72.162 228.029,73.333 229.216 M80.297 233.369 C 80.561 233.713,80.647 234.138,80.487 234.315 C 80.327 234.491,80.402 234.518,80.653 234.374 C 80.904 234.230,81.199 234.334,81.308 234.605 C 81.422 234.887,81.520 234.914,81.538 234.669 C 81.555 234.432,81.175 233.903,80.693 233.492 C 80.157 233.034,80.003 232.987,80.297 233.369 " stroke="none" fill="#5d885c" fill-rule="evenodd"></path><path id="path2" d="M103.529 143.318 C 103.206 143.395,101.618 143.671,100.000 143.931 C 76.182 147.756,57.417 168.531,57.678 190.784 L 57.705 193.137 58.600 190.588 C 61.973 180.979,70.480 170.380,79.053 165.103 C 81.332 163.700,83.846 161.652,86.275 159.219 C 95.151 150.330,104.853 145.124,113.836 144.431 C 116.396 144.233,116.820 144.115,116.050 143.815 C 115.120 143.452,104.697 143.038,103.529 143.318 M252.878 167.108 C 248.073 168.463,247.059 171.153,247.059 182.549 C 247.059 195.704,248.815 198.569,256.863 198.541 C 262.842 198.520,265.789 196.048,266.480 190.472 L 266.762 188.199 263.871 188.315 L 260.980 188.431 260.774 190.487 C 260.355 194.647,254.673 195.697,253.089 191.906 C 252.405 190.268,252.320 175.285,252.984 173.380 C 254.506 169.014,260.915 170.634,260.915 175.385 L 260.915 176.471 263.836 176.471 L 266.757 176.471 266.475 174.216 C 265.741 168.340,259.702 165.183,252.878 167.108 M94.510 182.549 L 94.510 198.039 102.941 198.039 L 111.373 198.039 111.373 195.964 L 111.373 193.888 109.510 193.897 C 108.485 193.903,105.926 193.866,103.824 193.816 L 100.000 193.725 100.000 189.020 L 100.000 184.314 104.314 184.314 L 108.627 184.314 108.627 182.226 L 108.627 180.137 104.314 180.315 L 100.000 180.493 100.000 175.933 L 100.000 171.373 105.490 171.373 L 110.980 171.373 110.980 169.216 L 110.980 167.059 102.745 167.059 L 94.510 167.059 94.510 182.549 M116.863 182.549 L 116.863 198.039 119.216 198.039 L 121.569 198.039 121.569 185.817 C 121.569 179.095,121.668 173.694,121.789 173.815 C 121.910 173.936,123.127 178.422,124.492 183.783 C 125.858 189.143,127.274 194.553,127.639 195.804 L 128.302 198.078 130.304 197.961 L 132.306 197.843 134.196 190.588 C 135.235 186.598,136.602 181.392,137.234 179.020 L 138.381 174.706 138.406 186.373 L 138.431 198.039 140.980 198.039 L 143.529 198.039 143.529 182.534 L 143.529 167.029 139.902 167.142 L 136.275 167.255 134.239 174.706 C 133.119 178.804,131.811 183.708,131.332 185.603 C 130.376 189.389,130.192 189.454,129.431 186.275 C 129.148 185.088,128.052 180.941,126.996 177.059 C 125.940 173.176,124.897 169.338,124.679 168.529 L 124.283 167.059 120.573 167.059 L 116.863 167.059 116.863 182.549 M149.412 182.499 L 149.412 198.005 152.255 198.120 C 164.280 198.607,167.845 196.870,168.174 190.362 C 168.393 186.026,166.436 182.353,163.908 182.353 C 162.773 182.353,162.984 181.845,164.396 181.176 C 166.558 180.153,167.240 178.777,167.375 175.168 C 167.617 168.676,165.693 167.318,155.980 167.124 L 149.412 166.993 149.412 182.499 M173.725 182.510 L 173.725 198.039 176.471 198.039 L 179.216 198.039 179.216 191.373 L 179.216 184.706 181.000 184.706 C 184.458 184.706,185.645 185.855,186.068 189.608 C 186.340 192.027,186.946 196.062,187.246 197.451 C 187.399 198.162,187.677 198.223,190.207 198.104 C 192.329 198.004,192.952 197.848,192.800 197.452 C 192.690 197.166,192.399 195.460,192.153 193.662 C 190.993 185.174,190.891 184.896,188.500 183.659 L 187.390 183.085 189.058 182.229 C 191.442 181.005,192.157 179.425,192.157 175.383 C 192.157 168.575,190.388 167.322,180.490 167.120 L 173.725 166.981 173.725 182.510 M200.804 182.059 C 198.788 190.309,197.058 197.279,196.959 197.549 C 196.827 197.910,197.457 198.039,199.343 198.039 C 202.240 198.039,201.918 198.432,202.953 193.627 L 203.608 190.588 207.620 190.588 L 211.631 190.588 212.286 193.636 C 212.646 195.313,212.941 196.989,212.941 197.362 C 212.941 197.942,213.354 198.039,215.817 198.039 L 218.693 198.039 217.818 194.412 C 217.336 192.417,215.733 185.446,214.256 178.922 L 211.569 167.060 208.018 167.060 L 204.468 167.059 200.804 182.059 M228.885 167.353 C 228.705 167.646,225.020 182.397,222.567 192.647 L 221.276 198.039 223.894 198.039 L 226.512 198.039 227.240 194.338 L 227.967 190.638 231.881 190.515 C 236.399 190.373,236.019 190.044,237.061 195.000 L 237.701 198.039 240.445 198.039 C 242.877 198.039,243.166 197.961,242.982 197.353 C 242.868 196.975,241.633 191.637,240.237 185.490 C 238.842 179.343,237.319 172.681,236.854 170.686 L 236.008 167.059 232.537 167.059 C 230.628 167.059,228.984 167.191,228.885 167.353 M271.373 182.549 L 271.373 198.039 279.750 198.039 L 288.127 198.039 288.017 195.980 L 287.906 193.922 282.385 193.813 L 276.863 193.704 276.863 189.009 L 276.863 184.314 281.176 184.314 L 285.490 184.314 285.488 182.255 L 285.486 180.196 281.272 180.143 L 277.059 180.090 276.948 175.732 L 276.837 171.373 282.340 171.373 L 287.843 171.373 287.843 169.216 L 287.843 167.059 279.608 167.059 L 271.373 167.059 271.373 182.549 M289.804 167.468 C 289.804 167.693,290.113 167.826,290.490 167.762 C 291.087 167.662,291.191 168.044,291.291 170.686 C 291.438 174.592,292.157 174.663,292.157 170.772 C 292.157 168.075,292.234 167.787,293.039 167.463 C 293.738 167.182,293.494 167.103,291.863 167.084 C 290.678 167.069,289.804 167.233,289.804 167.468 M294.928 167.794 C 293.561 170.350,294.966 174.112,297.006 173.357 C 297.757 173.079,297.843 172.750,297.843 170.151 L 297.843 167.255 296.595 167.134 C 295.670 167.044,295.238 167.216,294.928 167.794 M297.059 170.229 C 297.059 172.484,296.977 172.745,296.275 172.745 C 295.330 172.745,294.895 168.993,295.724 167.994 C 296.614 166.922,297.059 167.667,297.059 170.229 M72.295 174.216 C 64.250 182.511,59.350 192.725,59.139 201.643 C 58.948 209.689,68.951 226.539,77.243 232.141 C 81.246 234.846,81.402 234.784,78.891 231.492 C 63.858 211.783,62.188 186.024,75.023 171.863 C 75.463 171.377,75.735 170.980,75.628 170.980 C 75.521 170.980,74.021 172.436,72.295 174.216 M161.123 172.103 C 162.719 173.700,162.452 178.160,160.686 179.397 C 160.134 179.784,158.943 180.000,157.364 180.000 L 154.902 180.000 154.902 175.686 L 154.902 171.373 157.647 171.373 C 159.802 171.373,160.549 171.530,161.123 172.103 M185.633 172.185 C 186.585 172.934,186.667 173.230,186.667 175.929 C 186.667 179.994,185.904 180.784,181.979 180.784 L 179.216 180.784 179.216 176.078 L 179.216 171.373 181.908 171.373 C 184.038 171.373,184.816 171.542,185.633 172.185 M235.036 185.196 L 235.309 186.275 232.138 186.275 C 229.303 186.275,228.988 186.202,229.167 185.588 C 229.277 185.211,229.916 182.255,230.588 179.020 C 231.260 175.784,231.922 172.784,232.059 172.353 C 232.212 171.873,232.784 174.001,233.535 177.843 C 234.210 181.294,234.886 184.603,235.036 185.196 M209.326 178.924 C 210.033 182.643,210.607 185.819,210.600 185.980 C 210.594 186.142,209.244 186.275,207.601 186.275 C 204.951 186.275,204.634 186.197,204.792 185.588 C 204.889 185.211,205.565 182.034,206.293 178.529 C 207.021 175.025,207.712 172.158,207.828 172.159 C 207.944 172.160,208.618 175.204,209.326 178.924 M161.364 184.858 C 162.463 185.957,162.921 187.968,162.640 190.461 C 162.335 193.175,161.399 193.875,157.840 194.055 L 154.902 194.203 154.902 189.062 L 154.902 183.922 157.665 183.922 C 160.055 183.922,160.554 184.048,161.364 184.858 " stroke="none" fill="#152245" fill-rule="evenodd"></path><path id="path3" d="M89.608 136.085 C 88.961 136.246,87.263 136.399,85.835 136.424 C 82.831 136.478,76.210 138.054,74.386 139.149 C 73.699 139.562,72.664 140.010,72.086 140.146 C 71.508 140.282,70.798 140.631,70.508 140.921 C 70.218 141.211,69.097 141.660,68.017 141.919 C 64.770 142.698,61.273 145.180,53.647 152.121 C 51.573 154.008,47.843 158.820,47.843 159.609 C 47.843 159.880,46.989 161.799,45.945 163.874 C 44.045 167.648,43.213 170.290,43.060 173.025 C 42.955 174.903,43.258 175.175,43.946 173.823 C 44.247 173.230,44.895 172.199,45.384 171.532 C 45.874 170.864,46.275 170.188,46.275 170.029 C 46.275 169.514,50.343 163.574,50.591 163.727 C 50.724 163.809,51.615 163.166,52.573 162.299 C 60.306 155.293,63.407 152.991,68.090 150.780 C 70.059 149.850,72.440 148.603,73.382 148.008 C 75.233 146.840,81.278 145.119,83.574 145.106 C 85.076 145.098,89.395 143.466,92.222 141.838 C 93.996 140.817,95.294 140.532,99.711 140.195 C 101.169 140.084,103.040 139.760,103.867 139.474 C 104.694 139.189,105.707 139.010,106.117 139.076 C 111.505 139.945,115.934 139.900,113.529 139.001 C 113.098 138.840,112.216 138.500,111.569 138.246 C 110.922 137.992,109.427 137.742,108.247 137.692 C 107.068 137.642,105.904 137.436,105.662 137.235 C 105.420 137.034,105.148 136.943,105.059 137.033 C 104.969 137.123,103.838 136.912,102.546 136.564 C 100.024 135.886,91.653 135.576,89.608 136.085 M77.681 205.345 C 77.166 207.198,77.120 213.712,77.612 215.006 C 77.809 215.523,78.084 216.903,78.224 218.071 C 79.069 225.128,79.597 226.844,81.824 229.773 C 85.199 234.212,89.743 237.865,90.700 236.907 C 91.092 236.516,90.739 235.934,87.455 231.569 C 86.482 230.275,85.394 228.510,85.038 227.647 C 83.270 223.369,82.745 221.973,82.745 221.553 C 82.745 221.301,82.326 220.260,81.814 219.240 C 80.931 217.483,80.185 214.099,79.214 207.451 C 78.697 203.912,78.249 203.298,77.681 205.345 M134.833 204.872 C 131.084 205.736,129.708 207.799,129.713 212.549 C 129.725 225.536,129.853 226.234,132.580 228.144 C 133.700 228.929,138.892 229.220,140.120 228.566 C 144.305 226.339,144.807 224.964,144.573 216.355 C 144.297 206.205,141.804 203.265,134.833 204.872 M95.569 205.014 C 93.459 205.203,93.426 205.414,93.516 217.791 C 93.607 230.227,93.379 229.507,97.059 228.996 C 98.353 228.817,100.550 228.574,101.941 228.458 C 105.755 228.139,106.290 227.249,102.869 226.915 C 96.548 226.298,96.915 226.582,96.830 222.255 C 96.744 217.882,96.886 217.710,100.721 217.565 C 103.634 217.454,103.725 217.421,103.725 216.471 C 103.725 215.447,103.088 215.341,99.131 215.707 C 97.241 215.881,96.863 215.166,96.863 211.419 C 96.863 207.343,96.982 207.223,101.163 207.092 C 104.345 206.993,104.706 206.890,104.706 206.087 C 104.706 205.580,104.014 205.462,98.235 204.978 C 97.588 204.924,96.388 204.940,95.569 205.014 M250.000 205.111 C 244.214 205.599,243.502 206.878,243.438 216.896 L 243.390 224.327 244.538 225.950 C 248.266 231.220,257.744 229.781,257.509 223.982 C 257.436 222.168,254.515 221.420,254.504 223.212 C 254.487 226.231,251.816 227.701,248.648 226.433 C 246.503 225.575,246.377 224.995,246.480 216.529 C 246.587 207.709,246.768 207.223,249.932 207.291 C 252.726 207.350,253.508 207.712,254.446 209.382 C 255.668 211.556,257.794 211.614,257.453 209.463 C 256.878 205.824,254.941 204.694,250.000 205.111 M164.908 205.863 C 164.641 206.704,165.313 209.648,165.847 209.978 C 166.032 210.092,166.299 211.203,166.442 212.446 C 166.805 215.616,167.392 218.597,168.239 221.569 C 168.639 222.971,169.061 224.751,169.177 225.524 C 169.620 228.485,170.067 229.008,172.157 229.008 C 174.034 229.008,174.498 228.622,174.775 226.831 C 174.906 225.986,175.235 224.851,175.508 224.309 C 175.780 223.767,176.123 222.443,176.271 221.367 C 176.719 218.110,176.764 217.905,177.430 216.078 C 177.784 215.108,178.148 213.565,178.240 212.650 C 178.332 211.735,178.780 210.120,179.236 209.060 C 180.408 206.335,180.186 205.294,178.431 205.294 C 177.079 205.294,177.055 205.323,176.811 207.255 C 176.674 208.333,176.286 209.922,175.947 210.784 C 175.609 211.647,175.262 213.324,175.176 214.510 C 175.027 216.570,174.905 217.087,174.086 219.136 C 173.888 219.632,173.725 220.448,173.725 220.951 C 173.725 222.749,172.536 224.977,172.044 224.099 C 171.809 223.678,171.638 223.292,171.665 223.243 C 171.692 223.193,171.528 222.575,171.301 221.870 C 170.920 220.686,170.622 219.177,169.964 215.098 C 169.825 214.235,169.573 213.353,169.404 213.137 C 168.865 212.450,168.148 209.270,168.169 207.659 C 168.200 205.233,165.568 203.784,164.908 205.863 M185.975 205.425 C 185.702 205.598,185.480 206.345,185.480 207.085 C 185.481 207.826,185.439 212.964,185.388 218.504 L 185.294 228.577 190.196 228.460 C 194.926 228.346,196.471 228.099,196.471 227.455 C 196.471 226.729,192.636 226.445,190.588 227.020 C 188.943 227.482,188.339 226.244,188.214 222.150 C 188.064 217.231,188.144 217.109,191.334 217.408 C 192.876 217.553,194.159 217.489,194.510 217.250 C 195.538 216.548,194.010 215.825,191.290 215.727 C 188.304 215.619,188.172 215.442,188.105 211.434 L 188.055 208.431 189.420 207.746 C 190.170 207.369,191.436 207.060,192.232 207.059 C 193.028 207.059,193.774 206.905,193.890 206.717 C 194.006 206.529,194.635 206.438,195.286 206.513 C 195.938 206.589,196.471 206.514,196.471 206.345 C 196.471 205.600,187.006 204.770,185.975 205.425 M207.608 206.096 C 207.481 206.600,207.556 207.849,207.774 208.872 C 208.034 210.090,208.041 211.486,207.795 212.915 C 207.574 214.194,207.550 216.560,207.735 218.627 C 207.909 220.569,207.915 223.039,207.748 224.118 C 207.022 228.806,207.815 229.246,215.668 228.515 C 219.323 228.175,219.414 228.141,219.080 227.272 C 218.896 226.791,218.143 226.665,215.404 226.661 C 210.834 226.653,210.913 226.730,210.807 222.182 C 210.699 217.548,210.961 217.221,214.532 217.545 C 216.472 217.721,216.888 217.647,217.103 217.086 C 217.522 215.993,216.626 215.542,214.168 215.609 C 211.287 215.689,211.151 215.522,210.831 211.505 C 210.510 207.480,210.692 207.263,214.502 207.132 C 221.466 206.892,219.840 205.118,212.689 205.154 C 207.940 205.178,207.833 205.198,207.608 206.096 M224.706 206.106 C 224.706 206.661,225.228 208.117,225.867 209.341 C 229.920 217.114,229.918 217.549,225.811 224.706 C 224.164 227.577,224.059 228.627,225.422 228.627 C 226.789 228.627,227.632 227.756,228.416 225.533 C 228.743 224.607,229.436 223.343,229.958 222.724 C 230.479 222.104,230.999 221.370,231.114 221.093 C 231.265 220.728,231.489 220.805,231.923 221.373 C 232.252 221.804,232.686 222.350,232.886 222.586 C 233.565 223.386,234.414 225.289,234.708 226.667 C 235.044 228.245,235.464 228.613,236.938 228.621 C 238.805 228.632,238.702 227.962,236.094 223.137 C 235.686 222.382,235.237 221.113,235.096 220.317 C 234.956 219.520,234.594 218.664,234.293 218.415 C 233.105 217.428,233.177 215.466,234.471 213.585 C 235.140 212.614,235.686 211.577,235.686 211.281 C 235.686 210.984,236.206 209.923,236.841 208.921 C 238.538 206.245,238.532 205.711,236.802 205.567 C 235.452 205.454,235.341 205.534,234.888 206.939 C 234.624 207.760,234.210 208.676,233.969 208.974 C 233.727 209.272,233.176 210.234,232.745 211.111 C 232.314 211.988,231.761 212.766,231.518 212.840 C 231.122 212.961,228.968 209.014,227.881 206.176 C 227.282 204.614,224.706 204.557,224.706 206.106 M263.897 205.506 C 263.453 205.780,263.357 210.529,263.511 224.544 L 263.554 228.499 269.189 228.555 C 273.979 228.602,274.860 228.518,275.061 227.995 C 275.497 226.858,274.848 226.628,271.406 226.698 C 266.880 226.789,266.292 226.462,266.215 223.810 C 266.043 217.911,266.258 217.537,269.976 217.255 C 272.568 217.059,273.534 216.364,271.483 216.172 C 270.160 216.048,267.377 215.261,266.934 214.885 C 266.757 214.736,266.542 213.116,266.456 211.285 C 266.266 207.238,266.457 207.079,271.189 207.357 C 274.536 207.553,275.590 207.110,275.060 205.727 C 274.815 205.090,264.889 204.893,263.897 205.506 M110.069 205.748 C 109.676 206.141,110.235 210.253,110.847 211.466 C 111.145 212.057,111.373 212.587,111.355 212.643 C 111.337 212.699,111.398 213.010,111.490 213.333 C 112.131 215.578,112.615 217.648,112.772 218.824 C 113.914 227.351,114.504 228.627,117.302 228.627 C 118.570 228.627,119.608 228.583,119.609 228.529 C 119.622 227.483,121.373 219.885,121.953 218.357 C 122.388 217.212,122.853 215.393,122.986 214.314 C 123.119 213.235,123.560 211.123,123.966 209.619 C 124.750 206.715,124.639 205.282,123.658 205.658 C 123.336 205.781,122.939 205.882,122.775 205.882 C 122.611 205.882,122.160 206.985,121.772 208.333 C 121.384 209.681,120.810 211.578,120.497 212.549 C 119.844 214.570,119.774 214.953,119.422 218.431 C 119.280 219.833,118.939 221.333,118.664 221.765 C 118.388 222.196,118.044 223.034,117.898 223.627 C 117.526 225.138,116.999 224.970,116.675 223.235 C 116.524 222.426,116.256 221.588,116.080 221.373 C 115.904 221.157,115.658 220.451,115.533 219.804 C 115.408 219.157,114.973 217.372,114.567 215.837 C 114.161 214.303,113.698 211.832,113.540 210.347 C 113.113 206.359,111.541 204.276,110.069 205.748 M151.378 206.265 C 150.682 207.565,150.736 227.263,151.438 228.115 C 152.060 228.869,160.951 228.783,161.588 228.016 C 162.648 226.738,160.466 226.310,155.593 226.840 C 154.764 226.930,154.009 226.808,153.856 226.560 C 153.603 226.151,153.645 210.783,153.906 207.923 C 154.098 205.831,152.256 204.623,151.378 206.265 M280.992 205.863 C 280.207 207.134,280.714 227.707,281.544 228.220 C 282.136 228.586,290.841 228.505,291.216 228.130 C 292.115 227.232,290.884 226.667,288.026 226.667 C 283.454 226.667,283.379 226.584,283.709 221.930 C 283.860 219.799,283.857 215.229,283.702 211.773 L 283.420 205.490 282.322 205.490 C 281.717 205.490,281.119 205.658,280.992 205.863 M139.051 207.694 C 141.298 208.750,142.076 212.269,141.251 217.647 C 141.102 218.618,141.072 220.382,141.185 221.569 C 141.418 224.034,140.462 226.644,139.306 226.699 C 138.933 226.717,138.138 226.811,137.541 226.910 C 133.819 227.520,132.941 225.738,132.732 217.150 C 132.484 206.970,133.685 205.174,139.051 207.694 " stroke="none" fill="#d67c24" fill-rule="evenodd"></path><path id="path4" d="M71.418 152.943 C 58.186 159.341,46.472 172.294,43.527 183.781 C 42.304 188.556,51.405 206.915,60.745 218.513 C 64.189 222.789,65.115 223.444,63.124 220.196 C 49.509 197.982,53.374 169.547,72.126 153.969 C 75.942 150.799,75.919 150.766,71.418 152.943 " stroke="none" fill="#752819" fill-rule="evenodd"></path></g></svg>